<svg width="138" height="48" viewBox="0 0 138 48" fill="none" xmlns="http://www.w3.org/2000/svg">
<path d="M36.1795 38.0476C36.1795 43.6429 28.0793 47 18.0897 47C8.10019 47 0 43.6429 0 38.0476C0 32.6628 8.10019 29.0952 18.0897 29.0952C28.0793 29.0952 36.1795 32.4524 36.1795 38.0476Z" fill="url(#paint0_radial_0_1)"/>
<path d="M18.0897 0C14.0916 0 10.2573 1.76849 7.43024 4.91642C4.60317 8.06435 3.01494 12.3339 3.01494 16.7857C3.01494 21.1097 5.15355 25.2905 7.57355 28.6834C10.0257 32.1234 12.9563 35.015 14.92 36.7898C16.7812 38.4684 19.3982 38.4684 21.2594 36.7898C23.2232 35.015 26.1537 32.1234 28.6059 28.6834C31.0259 25.2927 33.1645 21.1097 33.1645 16.7857C33.1645 12.3339 31.5763 8.06435 28.7492 4.91642C25.9221 1.76849 22.0878 0 18.0897 0Z" fill="url(#paint1_linear_0_1)"/>
<path d="M23.1147 16.7857C23.1147 18.2697 22.5853 19.6928 21.6429 20.7421C20.7006 21.7915 19.4224 22.381 18.0897 22.381C16.7571 22.381 15.4789 21.7915 14.5366 20.7421C13.5942 19.6928 13.0648 18.2697 13.0648 16.7857C13.0648 15.3018 13.5942 13.8786 14.5366 12.8293C15.4789 11.78 16.7571 11.1905 18.0897 11.1905C19.4224 11.1905 20.7006 11.78 21.6429 12.8293C22.5853 13.8786 23.1147 15.3018 23.1147 16.7857Z" fill="url(#paint2_linear_0_1)"/>
<path d="M49.592 26L47 22.704L50.36 6.896L54.36 3.6H64.296L66.904 6.896L65.816 12.048H61.288L61.912 9.104L61.144 8.128H55.608L54.424 9.104L51.992 20.496L52.76 21.472H58.296L59.48 20.496L60.104 17.552H64.632L63.544 22.704L59.528 26H49.592ZM50.648 24.496H59.112L62.2 21.936L62.856 18.896H61.336L60.84 21.232L58.712 22.976H51.704L50.328 21.232L53.064 8.32L55.176 6.592H62.184L63.576 8.32L63.08 10.672H64.6L65.256 7.616L63.24 5.072H54.776L51.704 7.616L48.648 21.936L50.648 24.496ZM79.8022 6.208L80.6822 2H85.8342L84.9542 6.208H79.8022ZM81.8022 4.832H83.5302L83.8662 3.216H82.1382L81.8022 4.832ZM71.9622 26L72.9222 21.472H77.1942L78.9382 13.248H74.6662L75.6262 8.72H84.4102L81.7062 21.472H85.9782L85.0182 26H71.9622ZM73.7542 24.512H83.8502L84.1702 22.992H79.7702L82.4902 10.192H76.8102L76.4902 11.712H80.6662L78.2502 22.992H74.0742L73.7542 24.512ZM95.5727 26L98.2927 13.232H94.3087L95.2687 8.72H99.2527L100.181 4.336H104.709L103.781 8.72H107.749L106.789 13.232H102.821L101.061 21.472H104.917L103.957 26H95.5727ZM97.3967 24.512H102.805L103.125 22.992H99.2367L101.637 11.696H105.637L105.957 10.192H101.957L102.885 5.824H101.365L100.437 10.192H96.4207L96.1007 11.696H100.117L97.3967 24.512ZM116.03 26L113.438 22.704L116.398 8.72H120.926L118.43 20.496L119.198 21.472H123.118L125.054 19.872L127.422 8.72H131.934L127.598 29.104L123.614 32.4H112.174L113.134 27.888H122.062L123.63 26.592L123.822 25.68L123.438 26H116.03ZM114.19 30.944H122.99L126.334 28.128L130.158 10.208H128.638L126.478 20.32L123.246 22.96H118.142L116.766 21.216L119.118 10.208H117.598L115.102 21.92L117.086 24.48H123.342L126.078 22.224L124.99 27.328L122.494 29.424H114.51L114.19 30.944Z" fill="#E8519D"/>
<path d="M59.3 34.04L57.2 33.6C57.2 33.52 57.2133 33.4 57.24 33.24C57.2667 33.08 57.36 33 57.52 33L59.94 33.08C60.5267 33.0533 60.94 33.0333 61.18 33.02C61.42 33.0067 61.5667 33 61.62 33C61.6733 33 61.7 33 61.7 33C61.8467 33 61.9333 33.0867 61.96 33.26C61.9867 33.42 62 33.5333 62 33.6L60.5 34.04L60.44 47H59.32L50.72 35.34L50.88 45.96L53 46.4C53 46.48 52.9867 46.6 52.96 46.76C52.9333 46.92 52.84 47 52.68 47L50.26 46.92C49.6867 46.9467 49.26 46.9667 48.98 46.98C48.7 46.9933 48.5133 47 48.42 47C48.34 47 48.3 47 48.3 47C48.1533 47 48.0667 46.92 48.04 46.76C48.0133 46.5867 48 46.4667 48 46.4L49.64 45.96V34.06L48 33.62C48 33.5533 48.0133 33.4333 48.04 33.26C48.0667 33.0867 48.1533 33 48.3 33C48.3 33 48.3533 33 48.46 33C48.5667 33 48.8133 33.0067 49.2 33.02C49.5867 33.0333 50.1867 33.0533 51 33.08L59.42 44.48L59.3 34.04ZM64.2847 46.1L65.6247 46.38C65.6247 46.4733 65.6114 46.6 65.5847 46.76C65.558 46.92 65.4514 47 65.2647 47C65.2647 47 65.2247 47 65.1447 47C65.078 47 64.9247 46.9933 64.6847 46.98C64.4447 46.9667 64.058 46.9533 63.5247 46.94L62.1447 47C61.918 47 61.8047 46.8 61.8047 46.4L62.9647 46.1L66.3447 37.22H67.6447L71.0647 46.08L72.2247 46.4C72.2247 46.4667 72.2114 46.5867 72.1847 46.76C72.158 46.92 72.058 47 71.8847 47C71.8847 47 71.7714 47 71.5447 47C71.318 46.9867 70.8914 46.9667 70.2647 46.94C69.558 46.9667 69.0914 46.9867 68.8647 47C68.638 47 68.5247 47 68.5247 47C68.3514 47 68.2447 46.92 68.2047 46.76C68.178 46.6 68.1647 46.4733 68.1647 46.38L69.5247 46.1L68.7247 43.88L65.0047 44.08L64.2847 46.1ZM66.8647 38.76L65.3447 43.04H68.4047L66.8647 38.76ZM75.3759 37.84L74.1759 38.12L76.6559 45.32L79.0959 38.12C78.9093 38.0667 78.7093 38.02 78.4959 37.98C78.2826 37.9267 78.0826 37.88 77.8959 37.84C77.8959 37.6933 77.9159 37.5533 77.9559 37.42C78.0093 37.2867 78.1093 37.22 78.2559 37.22L79.8359 37.28L80.9759 37.22C81.1626 37.2333 81.2693 37.32 81.2959 37.48C81.3226 37.64 81.3359 37.7533 81.3359 37.82L80.3559 38.12L77.1559 47H75.9159L72.6159 38.14L71.6359 37.82C71.6359 37.7533 71.6493 37.64 71.6759 37.48C71.7159 37.3067 71.8293 37.22 72.0159 37.22C72.0159 37.22 72.0959 37.2267 72.2559 37.24C72.4293 37.24 72.8359 37.2533 73.4759 37.28L75.0359 37.22C75.1826 37.22 75.2759 37.2867 75.3159 37.42C75.3559 37.5533 75.3759 37.6933 75.3759 37.84ZM84.0089 38.12L82.7289 37.84C82.7289 37.76 82.7422 37.64 82.7689 37.48C82.8089 37.3067 82.9156 37.22 83.0889 37.22C83.0889 37.22 83.1956 37.2267 83.4089 37.24C83.6222 37.24 84.0689 37.2533 84.7489 37.28C85.3756 37.2533 85.8022 37.24 86.0289 37.24C86.2556 37.2267 86.3689 37.22 86.3689 37.22C86.5422 37.22 86.6422 37.3067 86.6689 37.48C86.6956 37.64 86.7089 37.7533 86.7089 37.82L85.4289 38.12V46.1L86.7089 46.38C86.7089 46.46 86.6956 46.5867 86.6689 46.76C86.6422 46.92 86.5422 47 86.3689 47L84.7489 46.88L83.0889 47C82.9156 47 82.8089 46.92 82.7689 46.76C82.7422 46.5867 82.7289 46.46 82.7289 46.38L84.0089 46.1V38.12ZM97.0208 45.36L97.1808 45.94C96.5541 46.3667 95.9141 46.68 95.2608 46.88C94.6208 47.0667 93.9808 47.16 93.3408 47.16C92.4208 47.16 91.5941 46.9733 90.8608 46.6C90.1274 46.2267 89.5474 45.66 89.1208 44.9C88.7074 44.14 88.5008 43.1867 88.5008 42.04C88.5008 40.9467 88.7274 40.0333 89.1808 39.3C89.6474 38.5667 90.2608 38.0133 91.0208 37.64C91.7941 37.2533 92.6474 37.06 93.5808 37.06C94.8208 37.06 95.9274 37.3533 96.9008 37.94L96.4808 40.14C96.4274 40.14 96.3341 40.14 96.2008 40.14C96.0674 40.1267 95.9408 40.1 95.8208 40.06C95.7008 40.0067 95.6408 39.9267 95.6408 39.82V38.38C95.3741 38.3 95.0341 38.2333 94.6208 38.18C94.2208 38.1267 93.8474 38.1 93.5008 38.1C93.1541 38.1 92.8008 38.1333 92.4408 38.2C92.0808 38.2533 91.7608 38.32 91.4808 38.4C91.0541 38.7067 90.7074 39.1933 90.4408 39.86C90.1874 40.5133 90.0608 41.2533 90.0608 42.08C90.0608 43.4667 90.3874 44.5 91.0408 45.18C91.7074 45.86 92.5274 46.2 93.5008 46.2C93.9008 46.2 94.3208 46.1467 94.7608 46.04C95.2141 45.92 95.5874 45.7467 95.8808 45.52L95.6608 42.82L92.9408 42.68V41.86H97.0208V45.36ZM100.652 46.1L101.992 46.38C101.992 46.4733 101.979 46.6 101.952 46.76C101.925 46.92 101.819 47 101.632 47C101.632 47 101.592 47 101.512 47C101.445 47 101.292 46.9933 101.052 46.98C100.812 46.9667 100.425 46.9533 99.8919 46.94L98.5119 47C98.2852 47 98.1719 46.8 98.1719 46.4L99.3319 46.1L102.712 37.22H104.012L107.432 46.08L108.592 46.4C108.592 46.4667 108.579 46.5867 108.552 46.76C108.525 46.92 108.425 47 108.252 47C108.252 47 108.139 47 107.912 47C107.685 46.9867 107.259 46.9667 106.632 46.94C105.925 46.9667 105.459 46.9867 105.232 47C105.005 47 104.892 47 104.892 47C104.719 47 104.612 46.92 104.572 46.76C104.545 46.6 104.532 46.4733 104.532 46.38L105.892 46.1L105.092 43.88L101.372 44.08L100.652 46.1ZM103.232 38.76L101.712 43.04H104.772L103.232 38.76ZM111.661 38.18L109.401 38.14L109.201 39.54C109.201 39.6333 109.141 39.7067 109.021 39.76C108.914 39.8 108.794 39.8267 108.661 39.84C108.541 39.84 108.454 39.84 108.401 39.84L108.201 37.48C108.227 37.3467 108.294 37.2733 108.401 37.26C108.507 37.2333 108.641 37.22 108.801 37.22L112.401 37.3L115.941 37.22C116.114 37.22 116.254 37.2333 116.361 37.26C116.467 37.2733 116.527 37.3467 116.541 37.48L116.341 39.84C116.301 39.84 116.214 39.84 116.081 39.84C115.947 39.8267 115.821 39.8 115.701 39.76C115.594 39.7067 115.541 39.6333 115.541 39.54L115.341 38.14C114.967 38.14 114.587 38.1467 114.201 38.16C113.827 38.1733 113.447 38.18 113.061 38.18V46.04L114.681 46.38C114.681 46.46 114.667 46.5867 114.641 46.76C114.614 46.92 114.514 47 114.341 47L112.401 46.88L110.421 47C110.234 47 110.121 46.92 110.081 46.76C110.054 46.5867 110.041 46.46 110.041 46.38L111.661 46.04V38.18ZM127.681 41.94C127.681 43.1133 127.461 44.0867 127.021 44.86C126.581 45.6333 125.968 46.2133 125.181 46.6C124.408 46.9733 123.521 47.16 122.521 47.16C121.588 47.16 120.755 46.9733 120.021 46.6C119.288 46.2267 118.708 45.66 118.281 44.9C117.855 44.14 117.641 43.1933 117.641 42.06C117.641 40.9667 117.868 40.0533 118.321 39.32C118.788 38.5733 119.408 38.0133 120.181 37.64C120.955 37.2533 121.808 37.06 122.741 37.06C123.648 37.06 124.475 37.24 125.221 37.6C125.968 37.96 126.561 38.5 127.001 39.22C127.455 39.94 127.681 40.8467 127.681 41.94ZM119.201 42.08C119.201 43.4933 119.535 44.5467 120.201 45.24C120.868 45.9333 121.688 46.28 122.661 46.28C123.648 46.28 124.468 45.9333 125.121 45.24C125.788 44.5467 126.121 43.4933 126.121 42.08C126.121 40.72 125.788 39.7067 125.121 39.04C124.468 38.36 123.648 38.02 122.661 38.02C122.301 38.02 121.941 38.0533 121.581 38.12C121.221 38.1733 120.901 38.24 120.621 38.32C120.208 38.64 119.868 39.1333 119.601 39.8C119.335 40.4667 119.201 41.2267 119.201 42.08ZM132.267 42.88L132.127 46.1L133.647 46.38C133.647 46.46 133.633 46.5867 133.607 46.76C133.58 46.92 133.48 47 133.307 47L131.507 46.88L129.847 47C129.673 47 129.567 46.92 129.527 46.76C129.5 46.5867 129.487 46.46 129.487 46.38L130.767 46.1V38.12L129.487 37.84C129.487 37.76 129.5 37.64 129.527 37.48C129.567 37.3067 129.673 37.22 129.847 37.22C129.847 37.22 129.953 37.2267 130.167 37.24C130.38 37.24 130.827 37.2533 131.507 37.28L133.547 37.22C134.547 37.22 135.327 37.4867 135.887 38.02C136.447 38.5533 136.727 39.1933 136.727 39.94C136.727 40.3933 136.573 40.8533 136.267 41.32C135.96 41.7733 135.487 42.1267 134.847 42.38L137.787 47.12L136.767 47.42L133.447 42.7L132.267 42.88ZM132.307 41.92L133.027 41.94C133.813 41.9133 134.407 41.6933 134.807 41.28C135.207 40.8533 135.407 40.4 135.407 39.92C135.407 39.4533 135.233 39.0267 134.887 38.64C134.553 38.24 134.027 38.0333 133.307 38.02L132.127 38.12L132.307 41.92Z" fill="#B0A6FE"/>
<defs>
<radialGradient id="paint0_radial_0_1" cx="0" cy="0" r="1" gradientUnits="userSpaceOnUse" gradientTransform="translate(16.7976 35.0637) rotate(-11.8573) scale(29.0466 14.223)">
<stop stop-color="#7B7BFF"/>
<stop offset="0.502" stop-color="#A3A3FF"/>
<stop offset="1" stop-color="#CEB0FF"/>
</radialGradient>
<linearGradient id="paint1_linear_0_1" x1="-3.57978" y1="-10.8704" x2="24.4286" y2="29.8648" gradientUnits="userSpaceOnUse">
<stop stop-color="#F97DBD"/>
<stop offset="1" stop-color="#D7257D"/>
</linearGradient>
<linearGradient id="paint2_linear_0_1" x1="13.6477" y1="17.2803" x2="19.4664" y2="22.7126" gradientUnits="userSpaceOnUse">
<stop stop-color="#FDFDFD"/>
<stop offset="1" stop-color="#FECBE6"/>
</linearGradient>
</defs>
</svg>
